<?xml version="1.0" encoding="UTF-8"?> <svg xmlns="http://www.w3.org/2000/svg" width="865" height="878" viewBox="0 0 865 878" fill="none"><path d="M432.5 202.5C562.838 202.5 668.5 308.384 668.5 439C668.5 569.616 562.838 675.5 432.5 675.5C302.162 675.5 196.5 569.616 196.5 439C196.5 308.384 302.162 202.5 432.5 202.5Z" stroke="#29B6F6"></path><path d="M432.5 114.5C611.993 114.5 757.5 259.784 757.5 439C757.5 618.216 611.993 763.5 432.5 763.5C253.007 763.5 107.5 618.216 107.5 439C107.5 259.784 253.007 114.5 432.5 114.5Z" stroke="#29B6F6"></path><path d="M432.5 0.5C671.08 0.5 864.5 196.816 864.5 439C864.5 681.184 671.08 877.5 432.5 877.5C193.92 877.5 0.5 681.184 0.5 439C0.5 196.816 193.92 0.5 432.5 0.5Z" stroke="#29B6F6"></path></svg> 